<?xml version="1.0" encoding="UTF-8" standalone="no"?>
<!-- Created with Inkscape (http://www.inkscape.org/) -->

<svg
   xmlns:dc="http://purl.org/dc/elements/1.1/"
   xmlns:cc="http://creativecommons.org/ns#"
   xmlns:rdf="http://www.w3.org/1999/02/22-rdf-syntax-ns#"
   xmlns:svg="http://www.w3.org/2000/svg"
   xmlns="http://www.w3.org/2000/svg"
   xmlns:sodipodi="http://sodipodi.sourceforge.net/DTD/sodipodi-0.dtd"
   xmlns:inkscape="http://www.inkscape.org/namespaces/inkscape"
   width="176mm"
   height="176mm"
   viewBox="0 0 623.62205 623.62205"
   id="svg4900"
   version="1.1"
   inkscape:version="0.91 r13725"
   sodipodi:docname="board.svg">
  <defs
     id="defs4902">
    <filter
       style="color-interpolation-filters:sRGB"
       inkscape:label="Drop Shadow"
       id="filter5738-4-9-7">
      <feFlood
         flood-opacity="0.498039"
         flood-color="rgb(0,0,0)"
         result="flood"
         id="feFlood5740-4-9-2" />
      <feComposite
         in="flood"
         in2="SourceGraphic"
         operator="in"
         result="composite1"
         id="feComposite5742-1-1-8" />
      <feGaussianBlur
         in="composite1"
         stdDeviation="1"
         result="blur"
         id="feGaussianBlur5744-83-9-8" />
      <feOffset
         dx="2"
         dy="2"
         result="offset"
         id="feOffset5746-7-1-1" />
      <feComposite
         in="SourceGraphic"
         in2="offset"
         operator="over"
         result="composite2"
         id="feComposite5748-5-8-4" />
    </filter>
  </defs>
  <sodipodi:namedview
     id="base"
     pagecolor="#ffffff"
     bordercolor="#666666"
     borderopacity="1.0"
     inkscape:pageopacity="0.0"
     inkscape:pageshadow="2"
     inkscape:zoom="0.7"
     inkscape:cx="645.23233"
     inkscape:cy="340.11173"
     inkscape:document-units="px"
     inkscape:current-layer="layer1"
     showgrid="false"
     fit-margin-top="0"
     fit-margin-left="0"
     fit-margin-right="0"
     fit-margin-bottom="0"
     inkscape:window-width="1536"
     inkscape:window-height="801"
     inkscape:window-x="-8"
     inkscape:window-y="1072"
     inkscape:window-maximized="1" />
  <metadata
     id="metadata4905">
    <rdf:RDF>
      <cc:Work
         rdf:about="">
        <dc:format>image/svg+xml</dc:format>
        <dc:type
           rdf:resource="http://purl.org/dc/dcmitype/StillImage" />
        <dc:title></dc:title>
      </cc:Work>
    </rdf:RDF>
  </metadata>
  <g
     inkscape:label="Layer 1"
     inkscape:groupmode="layer"
     id="layer1"
     transform="translate(1320,105.54558)">
    <path
       inkscape:connector-curvature="0"
       style="color:#000000;clip-rule:nonzero;display:inline;overflow:visible;visibility:visible;opacity:1;isolation:auto;mix-blend-mode:normal;color-interpolation:sRGB;color-interpolation-filters:linearRGB;solid-color:#000000;solid-opacity:1;fill:#ffffff;fill-opacity:1;fill-rule:nonzero;stroke:#f0f0f0;stroke-width:16;stroke-linecap:butt;stroke-linejoin:round;stroke-miterlimit:4.23256159;stroke-dasharray:none;stroke-dashoffset:0;stroke-opacity:1;filter:url(#filter5738-4-9-7);color-rendering:auto;image-rendering:auto;shape-rendering:auto;text-rendering:auto;enable-background:accumulate"
       d="m -1116,-93.92351 0,192 -192,0 0,18 192,0 0,180 -192,0 0,18 192,0 0,192 18,0 0,-192 180,0 0,192 18,0 0,-192 192,0 0,-18 -192,0 0,-180 192,0 0,-18 -192,0 0,-192 -18,0 0,192 -180,0 0,-192 -18,0 z m 18,210 180,0 0,180 -180,0 0,-180 z"
       id="rect4252-2-2" />
    <path
       inkscape:connector-curvature="0"
       style="color:#000000;clip-rule:nonzero;display:inline;overflow:visible;visibility:visible;opacity:1;isolation:auto;mix-blend-mode:normal;color-interpolation:sRGB;color-interpolation-filters:linearRGB;solid-color:#000000;solid-opacity:1;fill:#f6cba0;fill-opacity:1;fill-rule:evenodd;stroke:none;stroke-width:0.101;stroke-linecap:butt;stroke-linejoin:miter;stroke-miterlimit:4.23256159;stroke-dasharray:none;stroke-dashoffset:0;stroke-opacity:1;color-rendering:auto;image-rendering:auto;shape-rendering:auto;text-rendering:auto;enable-background:accumulate"
       d="m -1116,-93.92351 0,192 -192,0 0,18 192,0 0,180 -192,0 0,18 192,0 0,192 18,0 0,-192 180,0 0,192 18,0 0,-192 192,0 0,-18 -192,0 0,-180 192,0 0,-18 -192,0 0,-192 -18,0 0,192 -180,0 0,-192 -18,0 z m 18,210 180,0 0,180 -180,0 0,-180 z"
       id="rect4252-2-2-0" />
  </g>
</svg>
