<?xml version="1.0" encoding="UTF-8" standalone="no"?>
<!-- Created with Inkscape (http://www.inkscape.org/) -->

<svg
   xmlns:dc="http://purl.org/dc/elements/1.1/"
   xmlns:cc="http://creativecommons.org/ns#"
   xmlns:rdf="http://www.w3.org/1999/02/22-rdf-syntax-ns#"
   xmlns:svg="http://www.w3.org/2000/svg"
   xmlns="http://www.w3.org/2000/svg"
   xmlns:sodipodi="http://sodipodi.sourceforge.net/DTD/sodipodi-0.dtd"
   xmlns:inkscape="http://www.inkscape.org/namespaces/inkscape"
   width="744.09448819"
   height="1052.3622047"
   id="svg14004"
   version="1.1"
   inkscape:version="0.91 r13725"
   sodipodi:docname="Tic tac toe card.svg">
  <defs
     id="defs14006">
    <filter
       style="color-interpolation-filters:sRGB;"
       inkscape:label="Drop Shadow"
       id="filter5738">
      <feFlood
         flood-opacity="0.498039"
         flood-color="rgb(0,0,0)"
         result="flood"
         id="feFlood5740" />
      <feComposite
         in="flood"
         in2="SourceGraphic"
         operator="in"
         result="composite1"
         id="feComposite5742" />
      <feGaussianBlur
         in="composite1"
         stdDeviation="1"
         result="blur"
         id="feGaussianBlur5744" />
      <feOffset
         dx="2"
         dy="2"
         result="offset"
         id="feOffset5746" />
      <feComposite
         in="SourceGraphic"
         in2="offset"
         operator="over"
         result="composite2"
         id="feComposite5748" />
    </filter>
    <filter
       style="color-interpolation-filters:sRGB"
       inkscape:label="Drop Shadow"
       id="filter5738-1">
      <feFlood
         flood-opacity="0.498039"
         flood-color="rgb(0,0,0)"
         result="flood"
         id="feFlood5740-7" />
      <feComposite
         in="flood"
         in2="SourceGraphic"
         operator="in"
         result="composite1"
         id="feComposite5742-6" />
      <feGaussianBlur
         in="composite1"
         stdDeviation="1"
         result="blur"
         id="feGaussianBlur5744-1" />
      <feOffset
         dx="2"
         dy="2"
         result="offset"
         id="feOffset5746-3" />
      <feComposite
         in="SourceGraphic"
         in2="offset"
         operator="over"
         result="composite2"
         id="feComposite5748-9" />
    </filter>
  </defs>
  <sodipodi:namedview
     id="base"
     pagecolor="#ffffff"
     bordercolor="#666666"
     borderopacity="1.0"
     inkscape:pageopacity="0.0"
     inkscape:pageshadow="2"
     inkscape:zoom="0.74449113"
     inkscape:cx="-250.8103"
     inkscape:cy="151.48714"
     inkscape:document-units="px"
     inkscape:current-layer="layer1"
     showgrid="false"
     inkscape:window-width="1920"
     inkscape:window-height="1017"
     inkscape:window-x="-8"
     inkscape:window-y="-8"
     inkscape:window-maximized="1"
     inkscape:snap-bbox="true"
     inkscape:bbox-nodes="true" />
  <metadata
     id="metadata14009">
    <rdf:RDF>
      <cc:Work
         rdf:about="">
        <dc:format>image/svg+xml</dc:format>
        <dc:type
           rdf:resource="http://purl.org/dc/dcmitype/StillImage" />
        <dc:title />
      </cc:Work>
    </rdf:RDF>
  </metadata>
  <g
     inkscape:label="Layer 1"
     inkscape:groupmode="layer"
     id="layer1">
    <path
       sodipodi:nodetypes="cccccccccccccccccccccccccccccccccccccccccccccccccccccccccc"
       inkscape:connector-curvature="0"
       id="path3063"
       d="m 521.8832,541.81053 0,14.37293 -104.7169,0 0,33.25556 20.7629,0 c 7.8066,11.33545 15.6303,22.67397 23.4332,34.01248 -7.7998,11.89856 -15.3526,24.01111 -23.9974,35.29215 l -24.2237,0 0,11.96521 c -0.5105,0.3699 -1.0259,0.70312 -1.5793,1.01554 l -18.7648,0 0,38.90373 25.0838,0 c -19.6717,26.99599 -19.1293,66.72695 1.4295,92.89571 l -27.3033,0 0,38.1144 23.2405,0 0,12.98008 20.7746,0 24.3245,34.35181 -22.6811,34.16289 -21.2845,0 0,34.87823 105.502,0 0,17.19455 38.8927,0 0,-31.45436 c 26.575,20.64838 66.9241,20.78656 93.5084,0.18831 l 0,31.26605 38.8927,0 0,-33.33565 c 28.3935,26.30449 78.5979,22.61038 102.8741,-7.48727 21.1721,-26.41272 18.9098,-67.04549 -2.5575,-92.74464 l 31.7623,0 0,-38.1144 -22.7728,0 0,-12.98013 -23.8096,0 -21.8116,-34.62206 22.714,-33.21582 19.7102,0 0,-12.0777 25.9698,0 0,-38.90373 -18.7105,0 0,-12.98075 -27.0068,0 C 772.1845,645.79714 762.1445,634.4409 755.0894,621.3825 l 26.5934,-31.94348 17.5281,0 0,-33.25556 -106.0339,0 0,-14.37293 -38.8927,0 0,14.37293 -93.5084,0 0,-14.37293 z"
       style="fill:#cacbce;fill-opacity:1;fill-rule:evenodd;stroke:#000001;stroke-width:0.101;stroke-miterlimit:4.23256159;stroke-opacity:1;stroke-dasharray:none;stroke-dashoffset:0" />
    <path
       inkscape:connector-curvature="0"
       id="path3874"
       d="m 507.1866,108.36907 0,15.00389 -44.5801,0 0,14.71592 13.6407,0 -20.565,29.90262 -20.4089,-29.90262 13.275,0 0,-14.71592 -47.4024,0 0,14.71592 15.1564,0 29.9721,43.73016 -29.9721,44.61914 -15.7574,0 0,13.4876 -24.8766,0 0,18.06214 47.5062,0 c -7.5387,2.87788 -14.1903,7.25004 -19.9382,13.17395 -11.1779,11.5201 -16.776,25.83493 -16.776,42.94573 0,10.50394 2.4134,20.63187 7.2123,30.37339 4.7984,9.74153 11.9623,17.34374 21.5321,22.79319 3.9278,2.23714 8.0188,4.01389 12.2553,5.33268 l -51.7917,0 0,18.06153 25.4776,0 0,13.61844 15.1564,0 29.9721,43.70448 -29.9721,44.64482 -15.7574,0 0,14.74221 46.9059,0 0,-14.74221 -14.2936,0 21.5059,-32.01991 21.5841,32.01991 -13.6407,0 0,14.74221 44.5801,0 0,14.84737 18.0569,0 0,-52.87923 c 1.0118,3.013 2.2346,5.99667 3.6844,8.93936 4.7989,9.74152 11.9891,17.34373 21.5584,22.7932 9.5692,5.44945 20.0581,8.15553 31.4621,8.15553 17.8967,0 32.6385,-5.73376 44.2401,-17.22574 6.2113,-6.15257 10.7548,-13.19535 13.6406,-21.12038 l 0,51.33726 18.0569,0 0,-55.72838 c 1.149,3.99003 2.6664,7.91892 4.5728,11.78851 4.799,9.74152 11.9892,17.34373 21.5585,22.7932 9.5693,5.44945 20.0581,8.15553 31.4621,8.15553 17.8961,0 32.6385,-5.73376 44.2402,-17.22574 11.6014,-11.49198 17.4033,-26.08072 17.4033,-43.75644 0,-17.33701 -5.7119,-31.76557 -17.116,-43.28568 -6.687,-6.75541 -14.5211,-11.50419 -23.518,-14.29832 l 52.9154,0 0,-18.06153 -23.021,0 0,-13.74928 -15.3134,0 -31.5924,-46.08285 29.058,-42.26646 14.7119,0 0,-12.52035 26.1569,0 0,-18.06214 -23.021,0 0,-13.4876 -15.3134,0 -31.5924,-46.05655 29.058,-42.29275 14.7119,0 0,-14.71592 -45.2073,0 0,14.71592 13.6406,0 -20.5918,29.90262 -20.4084,-29.90262 13.3007,0 0,-14.71592 -46.0952,0 0,-15.00389 -18.0569,0 0,51.2321 c -2.84,-7.75689 -7.2715,-14.7153 -13.3269,-20.83241 -11.4041,-11.52071 -26.1704,-17.2777 -44.2927,-17.2777 -17.9529,0 -32.5131,5.75699 -43.691,17.2777 -6.08,6.26569 -10.5023,13.38366 -13.275,21.30259 l 0,-51.70228 -18.0569,0 z m 74.8401,28.80515 c 12.0816,0 22.1149,4.32264 30.103,12.99053 7.9887,8.6685 11.9947,19.27456 11.9947,31.81142 0,12.42376 -3.9381,23.12151 -11.7856,32.07188 -7.8476,8.95097 -17.8564,13.40934 -30.051,13.40934 -12.3072,0 -22.2507,-4.36848 -29.8157,-13.12137 -7.565,-8.75349 -11.341,-19.58454 -11.341,-32.51698 0,-12.70623 3.8244,-23.33551 11.4456,-31.8634 7.6213,-8.52727 17.4247,-12.78142 29.45,-12.78142 z m -88.9246,0.91466 14.0845,0 0,88.3493 -11.5497,0 -31.5667,-46.05655 29.0319,-42.29275 z m 164.7839,0 13.8236,0 29.9721,43.73016 -29.9721,44.61914 -13.8236,0 0,-88.3493 z m -203.2229,56.32939 21.5841,32.01991 -13.6407,0 0,13.4876 -15.1557,0 0,-13.4876 -14.2936,0 21.5059,-32.01991 z m 255.4071,0 21.6105,32.01991 -13.6406,0 0,13.4876 -15.1564,0 0,-13.4876 -14.3199,0 21.5064,-32.01991 z m -184.8267,8.73025 c 1.0118,3.01302 2.2346,5.99606 3.6844,8.93937 4.7989,9.74152 11.9891,17.34373 21.5584,22.79319 3.6611,2.08489 7.4629,3.75769 11.3931,5.0447 l -36.6359,0 0,-36.77726 z m 114.5856,1.54197 0,35.23529 -36.793,0 c 8.7628,-2.80758 16.4752,-7.50072 23.1524,-14.1149 6.2113,-6.15257 10.7548,-13.19535 13.6406,-21.12039 z m -168.8865,53.29743 36.244,0 0,43.6256 c -2.1846,-11.74448 -7.5076,-21.90665 -15.9659,-30.45165 -5.8684,-5.92818 -12.6306,-10.29668 -20.2781,-13.17395 z m 54.3009,0 114.5856,0 0,21.61684 c -1.3737,-2.07144 -3.06,-4.0047 -5.0692,-5.77655 -5.9429,-5.26604 -12.4294,-7.54597 -18.9978,-7.60649 -10.4674,-0.0966 -23.8996,7.43957 -33.4218,16.02309 -9.4543,-9.47189 -21.1415,-16.12886 -32.5858,-16.02309 -6.5679,0.0611 -13.0544,2.34045 -18.9973,7.60649 -2.2378,1.973 -4.0659,4.13983 -5.5137,6.48212 l 0,-22.32241 z m 178.7377,0 14.0589,0 0,12.52035 13.6406,0 -20.5918,29.87695 -20.4084,-29.87695 13.3007,0 0,-12.52035 z m -257.2097,11.5794 c 12.0815,0 22.1142,4.32264 30.103,12.99114 7.9887,8.66851 11.9678,19.27395 11.9678,31.81082 0,12.42376 -3.9112,23.12152 -11.7588,32.07249 -7.8474,8.95097 -17.8826,13.40934 -30.0772,13.40934 -12.3071,0 -22.2243,-4.36848 -29.7893,-13.12198 -7.5657,-8.75288 -11.3675,-19.58453 -11.3675,-32.51698 0,-12.70623 3.8238,-23.33552 11.4457,-31.86279 7.6213,-8.52727 17.451,-12.78204 29.4763,-12.78204 z m 211.1145,0.94095 13.8236,0 29.9721,43.70388 -29.9721,44.64543 -13.8236,0 0,-88.34931 z m -132.6425,39.60012 c 0.084,0.18037 0.1479,0.33749 0.2354,0.52275 4.2101,8.96137 11.3692,18.28959 30.7302,40.01894 6.2077,6.96695 14.8605,15.75468 20.8529,21.95678 l -51.8185,0 0,-62.49847 z m 114.5856,0.94096 0,61.55751 -50.3028,0 c 6.4479,-7.49583 13.6529,-15.09131 19.7817,-21.95678 19.062,-21.3943 26.2834,-30.7641 30.5211,-39.60073 z m 70.2411,15.78832 21.6105,32.01991 -13.6406,0 0,13.74928 -15.1564,0 0,-13.74928 -14.3199,0 21.5064,-32.01991 z m -202.8836,0.54904 0,45.22015 -40.3203,0 c 9.129,-2.76966 17.1654,-7.56614 24.067,-14.40287 8.6381,-8.55662 14.0466,-18.83251 16.2533,-30.81728 z m -58.6383,63.28168 14.0582,0 0,13.61844 13.6407,0 -20.565,29.90323 -20.4089,-29.90323 13.275,0 0,-13.61844 z m 76.6952,0 36.4267,0 c -8.8838,2.79413 -16.5974,7.54291 -23.1517,14.29832 -6.08,6.26568 -10.5023,13.35737 -13.275,21.27692 l 0,-35.57524 z m 77.7143,0 36.8713,0 0,35.13074 c -2.84,-7.76179 -7.2685,-14.71225 -13.3269,-20.83242 -6.687,-6.75541 -14.5474,-11.50419 -23.5444,-14.29832 z m 54.9282,0 37.3153,0 c -8.8875,2.79413 -16.6213,7.54046 -23.1787,14.29832 -6.777,6.9847 -11.4683,15.00756 -14.1366,24.0478 l 0,-38.34612 z m -75.8593,12.70378 c 12.0816,0 22.1149,4.32263 30.103,12.99115 7.9887,8.6685 11.9947,19.27393 11.9947,31.8108 0,12.42376 -3.9381,23.09522 -11.7856,32.04621 -7.8476,8.95097 -17.8564,13.43563 -30.051,13.43563 -12.3072,0 -22.2507,-4.36849 -29.8157,-13.12198 -7.565,-8.7535 -11.341,-19.61084 -11.341,-32.54267 0,-12.70622 3.8244,-23.30982 11.4456,-31.8371 7.6213,-8.52727 17.4247,-12.78204 29.45,-12.78204 z m 133.531,0 c 12.0816,0 22.1143,4.32263 30.1029,12.99115 7.9888,8.6685 11.9942,19.27393 11.9942,31.8108 0,12.42376 -3.9375,23.09522 -11.785,32.04621 -7.8475,8.95097 -17.8564,13.43563 -30.051,13.43563 -12.3072,0 -22.2506,-4.36849 -29.8156,-13.12198 -7.5651,-8.7535 -11.3412,-19.61084 -11.3412,-32.54267 0,-12.70622 3.7982,-23.30982 11.4194,-31.8371 7.6213,-8.52727 17.451,-12.78204 29.4763,-12.78204 z m -222.4556,0.91466 14.0845,0 0,88.3493 -11.5497,0 -31.5667,-46.08284 29.0319,-42.26646 z"
       style="fill:#cacbce;fill-opacity:1;fill-rule:evenodd;stroke:#000001;stroke-width:0.101;stroke-miterlimit:4.23256159;stroke-opacity:1;stroke-dasharray:none;stroke-dashoffset:0" />
    <path
       inkscape:export-ydpi="150"
       inkscape:export-xdpi="150"
       inkscape:export-filename="C:\Users\Laptop\Desktop\circle lolly.png"
       sodipodi:nodetypes="scscsccsscscs"
       inkscape:connector-curvature="0"
       id="path3777"
       d="m 133.28838,701.81409 c -6.56783,0.0611 -13.05677,2.33617 -18.99971,7.60221 -6.21497,5.48064 -9.41945,12.46594 -9.41945,20.50531 0,5.93552 0.85482,9.31355 4.13995,16.30435 4.21016,8.96076 11.37778,18.28102 30.73875,40.01098 9.67751,10.86039 26.03948,26.91407 27.42808,29.07294 7.6397,-9.692 17.5678,-20.01742 25.6513,-29.07294 19.3611,-21.72996 26.5287,-31.05022 30.7394,-40.01098 3.2846,-6.9908 4.14,-10.36883 4.14,-16.30435 0,-8.03937 -3.2051,-15.02467 -9.4202,-20.50531 -5.9429,-5.26604 -12.4312,-7.54169 -18.9997,-7.60221 -10.4674,-0.0966 -23.897,7.4408 -33.4192,16.02432 -9.4543,-9.4719 -21.13534,-16.1301 -32.57922,-16.02432 z"
       style="fill:#cc2127;fill-opacity:1;stroke:#000001;stroke-width:0.101;stroke-miterlimit:4.23256159;stroke-opacity:1;stroke-dasharray:none" />
    <path
       d="m -29.767813,753.6637 c 0,-17.11078 5.58891,-31.42684 16.76741,-42.94756 11.1785003,-11.52009 25.74358,-17.28014 43.69719,-17.28014 18.12224,0 32.88553,5.76005 44.28957,17.28014 11.40414,11.52072 17.10612,25.94928 17.10612,43.28629 0,17.67572 -5.80108,32.26019 -17.40265,43.75216 -11.60156,11.49198 -26.35069,17.23797 -44.24738,17.23797 -11.40415,0 -21.8910697,-2.72442 -31.4602997,-8.17388 -9.5693303,-5.45007 -16.7534503,-13.04555 -21.5517803,-22.78708 -4.79902,-9.74152 -7.19818,-19.86395 -7.19818,-30.3679 z m 19.39222,0.0849 c 0,12.93183 3.7827903,23.77449 11.34780032,32.52798 7.56510998,8.75289 17.50174968,13.12993 29.80893968,13.12993 12.19462,0 22.21572,-4.47548 30.0632,-13.42646 7.84689,-8.95098 11.77096,-19.63834 11.77096,-32.0621 0,-12.53687 -3.99437,-23.13986 -11.98313,-31.80836 -7.98808,-8.66851 -18.02323,-13.00276 -30.10479,-13.00276 -12.02532,0 -21.8488897,4.26393 -29.4701397,12.79121 -7.62193,8.52727 -11.4328403,19.14433 -11.4328403,31.85056 z"
       style="font-size:207.4059906px;font-style:normal;font-variant:normal;font-weight:normal;font-stretch:normal;text-align:start;line-height:125%;letter-spacing:0px;word-spacing:0px;writing-mode:lr-tb;text-anchor:start;fill:#f16895;fill-opacity:1;stroke:#000001;stroke-width:0.101;stroke-miterlimit:4.23256159;stroke-opacity:1;stroke-dasharray:none;font-family:Rockwell;-inkscape-font-specification:Rockwell"
       id="path3793"
       inkscape:connector-curvature="0" />
    <path
       d="M -4.4913334,649.73274 25.486917,605.09097 -4.4913334,561.3816 l -15.1588196,0 0,-14.73915 47.42317,0 0,14.73915 -13.2952,0 20.40892,29.902 20.57842,-29.902 -13.63458,0 0,-14.73915 45.22142,0 0,14.73915 -14.73507,0 -29.04648,42.26951 31.58693,46.08163 15.32812,0 0,14.73915 -48.35492,0 0,-14.73915 13.63458,0 -21.59454,-32.01992 -21.51018,32.01992 14.312,0 0,14.73915 -46.91506,0 0,-14.73915 z"
       style="font-style:normal;font-variant:normal;font-weight:normal;font-stretch:normal;font-size:207.4059906px;line-height:125%;font-family:Rockwell;-inkscape-font-specification:Rockwell;text-align:start;letter-spacing:0px;word-spacing:0px;writing-mode:lr-tb;text-anchor:start;fill:#ffffff;fill-opacity:1;stroke:#f0f0f0;stroke-width:16;stroke-linejoin:round;stroke-miterlimit:4.23256159;stroke-dasharray:none;stroke-opacity:1;color:#000000;clip-rule:nonzero;display:inline;overflow:visible;visibility:visible;opacity:1;isolation:auto;mix-blend-mode:normal;color-interpolation:sRGB;color-interpolation-filters:linearRGB;solid-color:#000000;solid-opacity:1;fill-rule:nonzero;stroke-linecap:butt;stroke-dashoffset:0;filter-blend-mode:normal;filter-gaussianBlur-deviation:0;color-rendering:auto;image-rendering:auto;shape-rendering:auto;text-rendering:auto;enable-background:accumulate;filter:url(#filter5738)"
       id="path3791-0"
       inkscape:connector-curvature="0" />
    <path
       d="M -4.4913327,649.73274 25.486917,605.09097 -4.4913327,561.3816 l -15.1588203,0 0,-14.73915 47.42317,0 0,14.73915 -13.2952,0 20.40892,29.902 20.57842,-29.902 -13.63458,0 0,-14.73915 45.22142,0 0,14.73915 -14.73507,0 -29.04648,42.26951 31.58693,46.08163 15.32812,0 0,14.73915 -48.35492,0 0,-14.73915 13.63458,0 -21.59454,-32.01992 -21.51018,32.01992 14.312,0 0,14.73915 -46.91506,0 0,-14.73915 z"
       style="font-size:207.4059906px;font-style:normal;font-variant:normal;font-weight:normal;font-stretch:normal;text-align:start;line-height:125%;letter-spacing:0px;word-spacing:0px;writing-mode:lr-tb;text-anchor:start;fill:#f16895;fill-opacity:1;stroke:none;stroke-width:8;stroke-miterlimit:4.23256159;stroke-opacity:1;stroke-dasharray:none;font-family:Rockwell;-inkscape-font-specification:Rockwell;stroke-linejoin:round"
       id="path3791"
       inkscape:connector-curvature="0" />
    <path
       inkscape:connector-curvature="0"
       id="path3051-1"
       style="font-style:normal;font-variant:normal;font-weight:normal;font-stretch:normal;font-size:207.4059906px;line-height:125%;font-family:Rockwell;-inkscape-font-specification:Rockwell;text-align:start;letter-spacing:0px;word-spacing:0px;writing-mode:lr-tb;text-anchor:start;fill:#ffffff;fill-opacity:1;stroke:#f0f0f0;stroke-width:16;stroke-miterlimit:4.23256159;stroke-dasharray:none;stroke-opacity:1;color:#000000;clip-rule:nonzero;display:inline;overflow:visible;visibility:visible;opacity:1;isolation:auto;mix-blend-mode:normal;color-interpolation:sRGB;color-interpolation-filters:linearRGB;solid-color:#000000;solid-opacity:1;fill-rule:nonzero;stroke-linecap:butt;stroke-linejoin:round;stroke-dashoffset:0;filter-blend-mode:normal;filter-gaussianBlur-deviation:0;color-rendering:auto;image-rendering:auto;shape-rendering:auto;text-rendering:auto;enable-background:accumulate;filter:url(#filter5738)"
       d="m 104.27431,618.43122 c 0,-17.11079 5.589,-31.42685 16.7674,-42.94695 11.17792,-11.52071 25.74368,-17.28076 43.69659,-17.28076 18.1224,0 32.8861,5.76005 44.2903,17.28076 11.404,11.5201 17.1061,25.94866 17.1061,43.28567 0,17.67634 -5.8011,32.2602 -17.4027,43.75218 -11.6022,11.49197 -26.3513,17.23857 -44.2474,17.23857 -11.40418,0 -21.89111,-2.72503 -31.46033,-8.17449 -9.56923,-5.44945 -16.75335,-13.04556 -21.55237,-22.78708 -4.79833,-9.74091 -7.19759,-19.86395 -7.19759,-30.3679 z m 19.39221,0.0849 c 0,12.93183 3.7829,23.77511 11.3479,32.52799 7.56501,8.75349 17.50107,13.12993 29.80888,13.12993 12.1947,0 22.2151,-4.47548 30.0626,-13.42646 7.8476,-8.95098 11.771,-19.63834 11.771,-32.06211 0,-12.53686 -3.9938,-23.13985 -11.9825,-31.80836 -7.9888,-8.6685 -18.0239,-13.00276 -30.1055,-13.00276 -12.02529,0 -21.84818,4.26395 -29.46953,12.79122 -7.62183,8.52727 -11.43285,19.14432 -11.43285,31.85055 z" />
    <path
       inkscape:connector-curvature="0"
       id="path3051"
       style="font-size:207.4059906px;font-style:normal;font-variant:normal;font-weight:normal;font-stretch:normal;text-align:start;line-height:125%;letter-spacing:0px;word-spacing:0px;writing-mode:lr-tb;text-anchor:start;fill:#68a8f1;fill-opacity:1;stroke:#000001;stroke-width:0.101;stroke-miterlimit:4.23256159;stroke-opacity:1;stroke-dasharray:none;font-family:Rockwell;-inkscape-font-specification:Rockwell"
       d="m 104.27431,618.43122 c 0,-17.11079 5.589,-31.42685 16.7674,-42.94695 11.17792,-11.52071 25.74368,-17.28076 43.69659,-17.28076 18.1224,0 32.8861,5.76005 44.2903,17.28076 11.404,11.5201 17.1061,25.94866 17.1061,43.28567 0,17.67634 -5.8011,32.2602 -17.4027,43.75218 -11.6022,11.49197 -26.3513,17.23857 -44.2474,17.23857 -11.40418,0 -21.89111,-2.72503 -31.46033,-8.17449 -9.56923,-5.44945 -16.75335,-13.04556 -21.55237,-22.78708 -4.79833,-9.74091 -7.19759,-19.86395 -7.19759,-30.3679 z m 19.39221,0.0849 c 0,12.93183 3.7829,23.77511 11.3479,32.52799 7.56501,8.75349 17.50107,13.12993 29.80888,13.12993 12.1947,0 22.2151,-4.47548 30.0626,-13.42646 7.8476,-8.95098 11.771,-19.63834 11.771,-32.06211 0,-12.53686 -3.9938,-23.13985 -11.9825,-31.80836 -7.9888,-8.6685 -18.0239,-13.00276 -30.1055,-13.00276 -12.02529,0 -21.84818,4.26395 -29.46953,12.79122 -7.62183,8.52727 -11.43285,19.14432 -11.43285,31.85055 z" />
    <path
       inkscape:connector-curvature="0"
       id="path3053"
       style="font-size:207.4059906px;font-style:normal;font-variant:normal;font-weight:normal;font-stretch:normal;text-align:start;line-height:125%;letter-spacing:0px;word-spacing:0px;writing-mode:lr-tb;text-anchor:start;fill:#f16895;fill-opacity:1;stroke:#000001;stroke-width:0.101;stroke-miterlimit:4.23256159;stroke-opacity:1;stroke-dasharray:none;font-family:Rockwell;-inkscape-font-specification:Rockwell"
       d="m -7.3129827,933.23158 29.9782497,-44.6411 -29.9782497,-43.70998 -15.1582303,0 0,-14.73915 47.42317,0 0,14.73915 -13.29589,0 20.40903,29.90262 20.57842,-29.90262 -13.63401,0 0,-14.73915 45.22085,0 0,14.73915 -14.73507,0 -29.04649,42.26951 31.58752,46.08157 15.32754,0 0,14.73976 -48.35435,0 0,-14.73976 13.63401,0 -21.59455,-32.01992 -21.5095897,32.01992 14.3114097,0 0,14.73976 -46.91506,0 0,-14.73976 z" />
    <path
       d="m 238.6693,898.67189 c 0,-17.11135 5.5895,-31.42679 16.7674,-42.9475 11.1785,-11.5201 25.7442,-17.28016 43.6972,-17.28016 18.1222,0 32.8855,5.76006 44.2896,17.28016 11.4041,11.52071 17.1061,25.94927 17.1068,43.28622 0,17.67572 -5.8012,32.26019 -17.4028,43.75216 -11.6021,11.49198 -26.3513,17.23797 -44.2474,17.23797 -11.4047,0 -21.891,-2.72443 -31.4603,-8.1745 -9.5693,-5.44945 -16.7533,-13.04493 -21.5523,-22.78646 -4.7985,-9.74152 -7.1982,-19.86394 -7.1982,-30.36789 z m 19.3928,0.0849 c 0,12.93183 3.7828,23.77449 11.3479,32.52798 7.565,8.75288 17.5011,13.12993 29.8088,13.12993 12.1941,0 22.2152,-4.47548 30.0627,-13.42646 7.8474,-8.95097 11.7709,-19.63834 11.7709,-32.0621 0,-12.5368 -3.9944,-23.1398 -11.9825,-31.8083 -7.9887,-8.66851 -18.0238,-13.00276 -30.1054,-13.00276 -12.0253,0 -21.8483,4.26394 -29.4701,12.79121 -7.6214,8.52728 -11.4323,19.14432 -11.4323,31.8505 z"
       style="font-size:207.4059906px;font-style:normal;font-variant:normal;font-weight:normal;font-stretch:normal;text-align:start;line-height:125%;letter-spacing:0px;word-spacing:0px;writing-mode:lr-tb;text-anchor:start;fill:#f16895;fill-opacity:1;stroke:#000001;stroke-width:0.101;stroke-miterlimit:4.23256159;stroke-opacity:1;stroke-dasharray:none;font-family:Rockwell;-inkscape-font-specification:Rockwell"
       id="path3055"
       inkscape:connector-curvature="0" />
    <path
       d="m 270.4634,799.62855 29.9783,-44.64115 -29.9783,-43.70998 -15.1588,0 0,-14.73916 47.4232,0 0,14.73916 -13.2952,0 20.409,29.90261 20.5783,-29.90261 -13.6345,0 0,-14.73916 45.2214,0 0,14.73916 -14.7351,0 -29.0464,42.27012 31.5868,46.08101 15.3282,0 0,14.73976 -48.3549,0 0,-14.73976 13.6345,0 -21.5945,-32.0193 -21.5102,32.0193 14.312,0 0,14.73976 -46.9151,0 0,-14.73976 z"
       style="font-size:207.4059906px;font-style:normal;font-variant:normal;font-weight:normal;font-stretch:normal;text-align:start;line-height:125%;letter-spacing:0px;word-spacing:0px;writing-mode:lr-tb;text-anchor:start;fill:#f16895;fill-opacity:1;stroke:#000001;stroke-width:0.101;stroke-miterlimit:4.23256159;stroke-opacity:1;stroke-dasharray:none;font-family:Rockwell;-inkscape-font-specification:Rockwell"
       id="path3057"
       inkscape:connector-curvature="0" />
    <path
       inkscape:connector-curvature="0"
       id="path3059"
       style="font-size:207.4059906px;font-style:normal;font-variant:normal;font-weight:normal;font-stretch:normal;text-align:start;line-height:125%;letter-spacing:0px;word-spacing:0px;writing-mode:lr-tb;text-anchor:start;fill:#f16895;fill-opacity:1;stroke:#000001;stroke-width:0.101;stroke-miterlimit:4.23256159;stroke-opacity:1;stroke-dasharray:none;font-family:Rockwell;-inkscape-font-specification:Rockwell"
       d="m 105.33886,897.0425 c 0,-17.11074 5.58949,-31.4268 16.7674,-42.9469 11.17841,-11.52071 25.74417,-17.28076 43.69714,-17.28076 18.1223,0 32.8855,5.76005 44.2896,17.28076 11.4041,11.5201 17.1062,25.94866 17.1062,43.28561 0,17.67634 -5.8005,32.26019 -17.4021,43.75217 -11.6023,11.49197 -26.3514,17.23797 -44.2475,17.23797 -11.40463,0 -21.89107,-2.72443 -31.4603,-8.17389 -9.56922,-5.45007 -16.75335,-13.04556 -21.55236,-22.78708 -4.79833,-9.74151 -7.19808,-19.86394 -7.19808,-30.36788 z m 19.3928,0.0849 c 0,12.93184 3.78221,23.7745 11.3478,32.52799 7.56501,8.75288 17.50116,13.12993 29.80894,13.12993 12.1941,0 22.2151,-4.47549 30.0626,-13.42646 7.8475,-8.95097 11.771,-19.63834 11.771,-32.0621 0,-12.5368 -3.9944,-23.1398 -11.9826,-31.80831 -7.9887,-8.6685 -18.0238,-13.00276 -30.1053,-13.00276 -12.02536,0 -21.84835,4.26395 -29.47028,12.79122 -7.62125,8.52727 -11.43216,19.14432 -11.43216,31.85049 z" />
    <path
       inkscape:connector-curvature="0"
       id="path3061"
       style="font-size:207.4059906px;font-style:normal;font-variant:normal;font-weight:normal;font-stretch:normal;text-align:start;line-height:125%;letter-spacing:0px;word-spacing:0px;writing-mode:lr-tb;text-anchor:start;fill:#f16895;fill-opacity:1;stroke:#000001;stroke-width:0.101;stroke-miterlimit:4.23256159;stroke-opacity:1;stroke-dasharray:none;font-family:Rockwell;-inkscape-font-specification:Rockwell"
       d="m 260.9621,657.8791 29.9776,-44.64116 -29.9776,-43.70997 -15.1589,0 0,-14.73916 47.4232,0 0,14.73916 -13.2952,0 20.409,29.90261 20.5778,-29.90261 -13.6339,0 0,-14.73916 45.2213,0 0,14.73916 -14.7351,0 -29.0464,42.26951 31.5869,46.08162 15.3275,0 0,14.73916 -48.3542,0 0,-14.73916 13.6339,0 -21.5946,-32.01991 -21.5096,32.01991 14.312,0 0,14.73916 -46.915,0 0,-14.73916 z" />
    <path
       inkscape:connector-curvature="0"
       id="rect2989"
       d="m 54.967397,94.587651 0,131.556709 -131.51885,0 0,18.06213 131.51885,0 0,114.61895 -131.51885,0 0,18.06153 131.51885,0 0,131.55732 18.05624,0 0,-131.55732 114.585763,0 0,131.55732 18.0569,0 0,-131.55732 131.5189,0 0,-18.06153 -131.5189,0 0,-114.61895 131.5189,0 0,-18.06213 -131.5189,0 0,-131.556709 -18.0569,0 0,131.556709 -114.585763,0 0,-131.556709 -18.05624,0 z m 18.05624,149.618839 114.585763,0 0,114.61895 -114.585763,0 0,-114.61895 z"
       style="fill:#6f7074;fill-opacity:1;fill-rule:evenodd;stroke:#000001;stroke-width:0.101;stroke-miterlimit:4.23256159;stroke-opacity:1;stroke-dasharray:none;stroke-dashoffset:0" />
    <path
       inkscape:connector-curvature="0"
       id="path8587"
       d="m -402.68925,84.198183 0,17.195777 -105.48788,0 0,34.88863 21.28516,0 22.67918,34.16227 -24.32267,34.35303 -20.78808,0 0,12.97342 -23.23374,0 0,38.11745 27.30332,0 c -20.55819,26.16877 -21.10419,65.89911 -1.43255,92.89511 l -25.08754,0 0,38.90055 18.76308,0 c 0.55394,0.31242 1.07487,0.64197 1.586,1.01248 l 0,11.97988 24.22729,0 c 8.64478,11.28165 16.19759,23.39176 23.998,35.2897 -7.80286,11.33852 -15.63752,22.67336 -23.44405,34.00943 l -20.75019,0 0,33.24517 104.70467,0 0,14.38698 0,14.36803 -104.70467,0 0,33.24518 20.75019,0 c 7.80653,11.33549 15.64119,22.68983 23.44405,34.02834 -7.80041,11.89857 -15.35322,24.00872 -23.998,35.28973 l -24.22729,0 0,11.96096 c -0.51113,0.36985 -1.03206,0.69938 -1.586,1.0125 l -18.76308,0 0,38.90058 25.08754,0 c -19.67164,26.99606 -19.12564,66.72636 1.43255,92.89513 l -27.30332,0 0,38.11752 23.23374,0 0,12.97337 20.78808,0 24.32267,34.35298 -22.67918,34.16235 -21.28516,0 0,34.88863 105.48788,0 0,17.19583 38.90122,0 0,-31.44953 c 26.57511,20.64841 66.92417,20.77065 93.50845,0.17243 l 0,31.2771 38.88227,0 0,-33.34058 c 28.39285,26.3039 78.61318,22.60732 102.88938,-7.48972 21.17204,-26.41272 18.90737,-67.04305 -2.5606,-92.74286 l 31.755621,0 0,-38.11752 -22.775171,0 0,-12.97278 -23.80724,0 -21.80058,-34.62081 22.69874,-33.22624 19.7181,0 0,-12.0753 25.966151,0 0,-38.90058 -18.705601,0 0,-12.97346 -27.01655,0 c -7.35409,-12.94711 -17.38251,-24.31374 -24.43761,-37.37215 l 26.5965,-31.94592 17.52069,0 0,-33.24518 -106.04183,0 0,-14.36803 0,-14.38698 106.04183,0 0,-33.24517 -17.52069,0 -26.5965,-31.94593 c 7.0551,-13.05901 17.08352,-24.40608 24.43761,-37.3532 l 27.01655,0 0,-12.99236 18.705601,0 0,-38.90055 -25.966151,0 0,-12.07526 -19.7181,0 -22.69874,-33.22621 21.80058,-34.62084 23.80724,0 0,-12.9728 22.775171,0 0,-38.11745 -31.755621,0 c 21.46797,-25.69982 23.73264,-66.33016 2.5606,-92.74286 -24.2762,-30.097047 -74.49653,-33.793607 -102.88938,-7.48972 l 0,-33.340547 -38.88227,0 0,31.277047 c -26.58428,-20.598237 -66.93334,-20.457007 -93.50845,0.19138 l 0,-31.468427 -38.90122,0 z m 38.90122,419.022897 93.50845,0 0,14.38698 0,14.36803 -93.50845,0 0,-14.36803 0,-14.38698 z"
       style="fill:#d1d2d4;fill-opacity:1;fill-rule:evenodd;stroke:#000001;stroke-width:0.101;stroke-miterlimit:4.23256159;stroke-opacity:1;stroke-dasharray:none;stroke-dashoffset:0" />
    <path
       inkscape:connector-curvature="0"
       id="path8591"
       d="m -231.38997,517.60072 c 0,0 -3.22174,0 -7.8107,0 m -7.81137,0 c -2.57419,0 -5.24146,0 -7.81163,0 m -7.81089,0 c -4.5026,0 -7.64869,0 -7.64869,0"
       style="fill:none;stroke:#000001;stroke-width:0.101;stroke-linecap:butt;stroke-linejoin:miter;stroke-miterlimit:4.23256159;stroke-opacity:1;stroke-dasharray:none;stroke-dashoffset:0" />
    <path
       inkscape:connector-curvature="0"
       id="path8593"
       d="m -363.79109,517.60072 c 0,0 -3.22169,0 -7.81059,0 m -7.81124,0 c -2.57413,0 -5.24136,0 -7.8115,0 m -7.81075,0 c -4.50254,0 -7.64858,0 -7.64858,0"
       style="fill:none;stroke:#000001;stroke-width:0.101;stroke-linecap:butt;stroke-linejoin:miter;stroke-miterlimit:4.23256159;stroke-opacity:1;stroke-dasharray:none;stroke-dashoffset:0" />
  </g>
</svg>
